<svg xmlns="http://www.w3.org/2000/svg" width="1355.173" height="1336.271" viewBox="0 0 1355.173 1336.271"><g><ellipse stroke="#8C8C8C" stroke-width="100" stroke-miterlimit="10" cx="702.357" cy="676.278" rx="516.42" ry="518.212" fill="none"/><path fill="#5B5B5B" d="M587.948 189.936c-12.941 2.132-25.854 4.689-38.479 7.914-58.435 14.917-114.131 41.414-163.296 77.749-49.195 36.29-91.834 82.414-124.735 135.637-32.927 53.195-56.031 113.542-66.761 177.474-10.721 63.89-9.388 131.44 5.816 197.737 10.342 46.479 28.381 93.141 53.862 136.593 6.393 10.843 13.135 21.555 20.42 31.947 7.273 10.398 14.949 20.565 23.008 30.46 16.229 19.691 33.949 38.32 53.123 55.333 9.562 8.532 19.432 16.724 29.648 24.435 10.205 7.725 20.65 15.113 31.381 22.015 10.74 6.882 21.706 13.356 32.854 19.412 11.163 6.028 22.545 11.552 34.034 16.69 46.027 20.458 94.352 33.29 141.775 38.967-28.078-3.61-55.937-9.527-83.092-17.968-27.162-8.392-53.693-19.08-79.085-32.128-25.398-13.021-49.77-28.186-72.625-45.44-22.852-17.254-44.255-36.483-63.878-57.409-19.623-20.93-37.37-43.627-53.093-67.631-7.853-12.009-15.207-24.346-21.984-36.991-6.76-12.654-12.971-25.595-18.61-38.776-11.28-26.359-20.298-53.675-26.738-81.567-3.24-13.939-5.879-28.01-7.916-42.161-2.057-14.148-3.373-28.393-4.167-42.649-.763-14.258-.986-28.546-.53-42.8.472-14.25 1.529-28.458 3.18-42.577.458-3.524.813-7.06 1.349-10.571l1.572-10.532 1.831-10.482c.625-3.489 1.378-6.954 2.058-10.431 2.89-13.872 6.367-27.599 10.417-41.13 16.249-54.117 41.965-104.975 75.234-149.577 16.573-22.348 35.086-43.087 55.063-62.04 9.993-9.473 20.337-18.522 31.044-27.055 10.717-8.521 21.757-16.563 33.076-24.106 11.324-7.534 22.903-14.608 34.755-21.095 11.854-6.48 23.937-12.439 36.198-17.868 24.503-10.912 49.822-19.442 75.41-25.902-39.911 15.7-85.499 37.833-133.997 70.535-14.69 9.685-28.806 20.212-42.313 31.443-13.495 11.244-26.406 23.18-38.525 35.858-24.264 25.322-45.804 53.194-63.843 83.116-36.297 59.737-58.78 127.321-65.954 196.401l-7.114-.7c-4.207 49.905-1.142 99.972 9.033 148.068 10.155 48.124 27.426 94.37 50.964 136.99 23.525 42.624 53.287 81.635 88.058 115.445 34.781 33.794 74.545 62.395 117.718 84.462 43.159 22.086 89.729 37.603 137.757 45.697 48.002 8.102 97.544 8.878 146.139 2.11 48.602-6.762 96.315-21.227 140.814-42.979 44.521-21.693 85.738-50.767 121.519-85.788-5.509 4.531-7.028 4.995-6.928 4.067.113-.917 1.747-3.331 2.417-4.766l2.053-1.929-2.053 1.929c.62-1.277.495-1.78-2.032.138-1.245.979-3.17 2.475-5.896 4.79l-4.75 4.075-6.273 5.274 6.273-5.274 4.75-4.075c2.727-2.315 4.651-3.812 5.896-4.79 2.527-1.918 2.652-1.415 2.032-.138-8.957 8.312-18.147 16.344-27.668 23.933-9.527 7.579-19.302 14.809-29.299 21.678-10.039 6.81-20.309 13.232-30.766 19.294-10.458 6.062-21.183 11.608-32.028 16.848-43.465 20.81-89.818 34.796-137.042 41.572-47.21 6.777-95.383 6.501-142.203-.748-46.839-7.262-92.42-21.574-134.896-42.284-42.481-20.697-81.835-47.785-116.462-80.052-34.635-32.256-64.54-69.691-88.363-110.81-23.838-41.107-41.572-85.896-52.255-132.572-10.71-46.655-14.346-95.245-10.752-143.647-5.487 75.217 7.069 151.182 36.138 220.091 28.981 68.968 74.536 130.708 131.394 178.949 56.808 48.304 124.888 83.081 197.279 100.189 18.075 4.357 36.426 7.565 54.906 9.711 18.479 2.153 37.094 3.244 55.732 3.275 18.641.013 37.261-1.101 55.752-3.241 18.486-2.172 36.866-5.307 54.963-9.67 72.472-17.121 140.747-51.881 197.772-100.358 57.084-48.398 102.857-110.462 132.021-179.91 14.54-34.728 25.137-71.198 31.149-108.56 6.149-37.323 7.699-75.572 5-113.559-1.327-18.994-3.936-37.9-7.533-56.629-1.757-9.375-3.954-18.665-6.248-27.935l-1.866-6.916c-.634-2.303-1.214-4.621-1.924-6.903-1.378-4.575-2.669-9.179-4.199-13.711-5.873-18.203-12.766-36.119-20.852-53.532-8.061-17.42-17.07-34.454-27.233-50.833-6.831-11.204-17.823-27.605-29.945-43.173-12.084-15.6-25.355-30.242-34.534-39.652-8.686-9.896-17.789-19.471-27.378-28.563-9.586-9.095-19.586-17.783-29.959-26.026-20.718-16.535-43.074-31.069-66.487-43.672-11.702-6.319-23.743-12.012-35.986-17.227-12.252-5.199-24.725-9.898-37.395-14.009-12.681-4.075-25.538-7.606-38.523-10.589-3.255-.707-6.495-1.489-9.763-2.135l-9.811-1.915c-6.567-1.127-13.133-2.272-19.743-3.131 6.905-1.303 5.701-4.312 3.158-7.594-2.525-3.28-6.399-6.836-4.365-9.163 2.024-2.234 10.098-3.746 31.366-1.071 10.616 1.384 24.53 3.883 42.305 8.763 4.419 1.299 9.122 2.601 14.039 4.17 4.906 1.603 10.103 3.24 15.489 5.242 5.428 1.885 11.041 4.131 16.953 6.46 5.86 2.462 12.024 5.01 18.356 7.985.725-1.645 2.177-4.94 2.901-6.586-12.755-6.233-25.237-11.836-37.389-16.729-12.145-4.905-23.879-9.35-35.188-13.116l-4.202-1.447-4.174-1.337-8.184-2.634-8.003-2.396c-2.629-.798-5.219-1.587-7.79-2.275-5.131-1.43-10.099-2.87-14.94-4.079l-7.125-1.877c-2.345-.568-4.646-1.126-6.902-1.674-18.069-4.415-33.538-7.576-45.85-10.306-3.08-.629-5.963-1.254-8.641-1.873l-7.413-1.767c-4.524-1.098-8.2-2.188-10.97-3.263-5.35-2.082-7.133-4.148-5.016-6.135.529-.497 1.303-.988 2.324-1.474 1.046-.48 2.239-.978 3.879-1.422 3.213-.905 7.513-1.769 12.957-2.573 10.88-1.383 26.363-2.419 46.75-1.577 20.363.867 45.68 3.481 75.656 10.131 33.659 7.604 68.049 18.99 101.935 34.522 33.877 15.523 67.272 35.141 98.8 58.904 15.771 11.866 31.095 24.731 45.82 38.545 14.73 13.808 28.862 28.569 42.191 44.254 13.346 15.67 25.946 32.212 37.673 49.532 11.742 17.31 22.486 35.472 32.299 54.248 19.66 37.541 35.049 77.842 45.798 119.554 10.681 41.733 16.562 84.905 17.569 128.112.925 43.185-2.854 86.548-11.514 128.737-8.665 42.182-21.959 83.202-39.491 121.82-25.544 56.182-60.58 108.051-103.056 152.94-21.227 22.463-44.4 43.085-69.044 61.783-24.715 18.607-50.963 35.214-78.441 49.505-13.754 7.116-27.802 13.668-42.099 19.631-3.59 1.453-7.149 2.982-10.769 4.362l-10.857 4.138-10.956 3.87c-3.648 1.3-7.356 2.427-11.033 3.643-14.761 4.704-29.714 8.799-44.808 12.273-15.107 3.419-30.354 6.188-45.678 8.346-3.836.499-7.662 1.085-11.508 1.499l-11.534 1.255c-7.704.665-15.406 1.345-23.126 1.708l-5.787.322-5.79.183-5.79.174-2.895.085-2.896.016-11.578.045-11.573-.25c-15.428-.486-30.838-1.584-46.179-3.308-15.336-1.782-30.59-4.225-45.715-7.271-20.791-4.253-41.451-9.676-61.829-16.263-20.371-6.611-40.429-14.463-60.062-23.406-4.938-2.172-9.763-4.601-14.64-6.925-4.854-2.372-9.643-4.886-14.457-7.354-9.534-5.12-19.021-10.37-28.281-16.031-18.57-11.232-36.591-23.503-53.799-36.904-34.5-26.693-65.987-57.562-93.568-91.707-13.748-17.106-26.561-34.996-38.277-53.593-11.663-18.63-22.263-37.936-31.714-57.784-9.401-19.873-17.598-40.306-24.602-61.113-.917-2.587-1.709-5.215-2.543-7.829l-2.473-7.849-2.284-7.904c-.755-2.636-1.542-5.262-2.211-7.92-1.379-5.306-2.829-10.591-4.029-15.937l-1.877-7.996-1.682-8.036c-8.944-42.863-12.435-86.623-11.103-129.834.647-21.621 2.703-43.138 5.898-64.387 3.228-21.246 7.626-42.235 13.301-62.771 11.369-41.061 27.372-80.402 47.558-116.776 7.224-13.295 15.555-27.595 25.055-42.268 9.494-14.675 20.154-29.72 31.854-44.558 23.354-29.706 51.027-58.451 80.095-82.697 29.028-24.298 59.271-44.127 85.985-58.399 13.364-7.135 25.81-12.949 36.704-17.545 2.732-1.13 5.378-2.16 7.901-3.153 2.529-.979 4.927-1.944 7.254-2.73 4.64-1.604 8.767-3.046 12.415-4.076l7.319-2.259c2.289-.702 4.442-1.319 6.478-1.829 4.06-1.049 7.561-1.898 10.583-2.526 6.079-1.154 10.184-1.589 12.82-1.493 5.302.293 4.706 2.599 2.23 5.564-46.451 14.357-90.88 35.116-131.672 61.409-40.818 26.27-77.903 58.166-110.14 94.261-64.609 72.122-108.972 161.769-127.243 256.134-11.585 57.813-13.718 117.479-6.287 176.118.5 3.66.899 7.335 1.485 10.983l1.704 10.955 1.97 10.913c.315 1.822.672 3.636 1.059 5.443l1.124 5.432c3.06 14.469 6.65 28.837 10.872 43.028 8.526 28.347 19.168 56.11 32.217 82.741 6.494 13.327 13.517 26.402 21.048 39.187 7.565 12.765 15.667 25.213 24.233 37.341 17.101 24.281 36.29 47.104 57.137 68.323 2.633 2.625 5.222 5.298 7.897 7.882l8.059 7.721 8.235 7.537c2.737 2.523 5.591 4.913 8.383 7.375 11.277 9.725 22.942 19.01 34.965 27.827 24.088 17.573 49.617 33.233 76.289 46.74-52.006-26.746-99.975-61.736-141.312-103.622-41.436-41.774-76.201-90.427-102.544-143.508-6.585-13.272-12.579-26.85-18.074-40.635-5.47-13.794-10.475-27.795-14.771-42.03-4.327-14.224-8.094-28.628-11.292-43.171-3.226-14.539-5.71-29.246-7.71-44.019-4.028-29.554-5.431-59.475-4.649-89.35.951-29.877 4.129-59.768 9.962-89.211 18.653-94.085 63.212-182.622 127.07-253.583 15.895-17.806 33.071-34.428 51.145-49.97 18.181-15.417 37.266-29.765 57.306-42.635 4.964-3.288 10.083-6.331 15.146-9.457 2.553-1.53 5.141-3 7.71-4.502l3.859-2.24 3.908-2.155 7.825-4.29 7.926-4.102c1.323-.678 2.636-1.377 3.969-2.037l4.011-1.953c2.678-1.293 5.337-2.624 8.031-3.882 5.416-2.457 10.79-5.002 16.283-7.281 2.74-1.151 5.45-2.375 8.216-3.464l8.281-3.301c11.093-4.266 22.278-8.295 33.634-11.786-2.736 2.832-5.363 5.632-5.773 7.764-.417 2.125 1.329 3.423 7.287 3.374l2.403-.783c1.554-.487 3.779-1.273 6.581-2.101l9.849-2.94c3.728-1.061 7.856-2.147 12.189-3.334 4.35-1.127 8.943-2.208 13.577-3.355 4.665-1.015 9.378-2.081 13.999-3.033 4.637-.872 9.148-1.804 13.412-2.533l11.806-1.946c28.82-1.961 48.618-.465 61.1 1.707 1.561.264 3.009.535 4.347.81 1.339.303 2.568.621 3.691.935 2.248.631 4.073 1.272 5.508 1.922 2.869 1.3 4.178 2.633 4.178 3.983-.002 2.71-5.228 5.447-13.737 8.185-8.508 2.913-20.313 5.787-33.547 9.4-13.564 3.159-28.587 7.236-44.96 12.493z"/></g><path fill="#fff" d="M232.646 1126.184c47.89-21.96 95.781-43.915 143.668-65.871l1.188 1.047c-6.115 8.135-12.232 16.272-18.333 24.385 24.989 8.269 39.3-7.645 56.415-17.853l2.706 6.577c6.021-2.634 11.605-4.623 16.655-7.374 11.127-6.071 22.901-8.048 36.03-7.812 33.507.596 67.037.147 100.557.188 8.534.01 17.7-1.896 23.351 6.735 1.162 1.77 4.773 2.292 7.386 3.447-7.47 3.776-6.973 6.891 2.404 16.768l-4.467 4.306c5.271 4.896 9.963 9.26 15.205 14.134.061-.034 1.868-1.141 5.618-3.431-1.924 6.627-3.276 11.289-5.008 17.256 4.46 1.337 9.201 2.754 14.158 4.239 2.851 14.63 2.871 14.63 15.505 19.099 2.271.805 5.851 1.309 6.469 2.742 3.885 9.047 9.52 8.092 16.623 1.996 2.089 2.758 4.327 4.822 5.396 7.28 3.98 9.126 3.839 9.174 13.898 3.521 1.961 3.379 3.9 6.722 6.293 10.849 9.282-6.368 17.817-2.578 26.242.463 7.584 2.744 15.082 5.751 22.339 9.117 1.923.893 3.744 3.428 4.009 5.379 1.568 11.599 2.442 23.27 3.993 34.871 1.714 12.819 12.61 21.854 25.565 22.543-5.901-4.961-12.408-10.436-19.994-16.802 6.49-.95 10.134-1.48 13.777-2.016-.702-3.447-.325-7.495-2.295-10.225-7.168-9.964-7.055-14.713 2.167-23.875 19.826 6.312 36.3 19.37 59.381 24.012-8.788-19.969-34.271-20.003-46.661-37.25 7.496-5.677 14.666-12.118 23.023-16.971 3.616-2.099 12.293-2.854 14.171-.881 8.112 8.528 14.179 3.039 21.109-.13-.829-2.463-1.454-4.316-2.707-8.021 12.536 3.256 23.248 6.034 33.957 8.82l.712-2.273c-15.145-6.366-27.213-21.626-48.077-11.506-22.898-2.493-42.579 5.27-61.831 14.807-2.673 1.32-7.536 2.073-9.706.823-10.953-6.327-22.271-12.591-31.476-20.644-3.541-3.102-1.94-10.864-2.506-16.511-1.307-13.103-.841-26.068-9.168-38.413-5.997-8.896 8.277-29.279 20.639-33.488 3.35-1.138 6.71-2.886 9.257-5.076 7.638-6.57 14.303-6.927 20.748.417 3.524 4.019 5.054 9.361 8.11 13.763 1.181 1.698 4.812 3.903 6.096 3.404 8.303-3.207 13.088.257 17.331 5.872 1.445 1.912 3.419 3.516 5.148 5.259l3.587-2.372c-2.849-17.623-22.086-25.085-33.626-37.201 20.835-10.907 27.88 4.488 36.561 16.35 4.608-2.873 8.159-5.085 11.774-7.337 4.454 2.376 8.649 4.618 14.398 7.684-4.299-6.657-7.654-11.868-11.01-17.077.64-.692 1.281-1.393 1.922-2.091 7.284 2.03 14.574 4.052 22.795 6.333-2.539-7.635-7.842-10.632-14.878-11.335-6.818-.683-13.784-.402-20.546-1.34-10.8-1.503-21.402-4.354-32.236-5.337-10.292-.932-20.772-.196-31.168-.196 8.488-7.671 17.119-13.231 25.837-18.688 1.185-.74 3.645-1.654 4.119-1.237 5.486 4.762 10.529.19 15.739-.302 10.649-1 22.021-.149 31.777-3.271 11.065-3.551 18.62-.488 25.693 5.35 9.339 7.71 17.854 16.193 26.626 24.253 6.862-8.27 11.069-17.445 8.665-28.462-.941-4.328-.061-8.944-.641-13.362-.848-6.425.559-11.916 5.453-16.991 6.354-6.589 5.892-13.75.562-20.787-3.331-4.397-6.137-9.246-10.186-13.068-17.916-16.893-36.169-33.499-54.354-50.172-15.619-14.323-21.677-32.214-20.427-51.143 1.579-23.828 6.19-47.487 9.166-71.25 1.052-8.414 3.667-15.888 8.559-23.426 14.899-22.967 33.744-42.782 54.935-61.454 26.989-23.771 56.672-45.352 78.736-73.397 4.158-5.286 11.979-10.261 18.945-11.4 9.378-1.531 15.274-5.974 21.128-11.303 7.255-6.595 14.519-13.223 21.156-20.292 38.229-40.679 68.81-85.225 86.268-136.124 2.206-6.436 2.192-13.769 1.569-20.57-.524-5.785-5.379-7.46-10.875-3.667-4.341 2.995-8.121 6.62-11.896 9.751 3.673-12.7 8.424-25.423 10.83-38.482 2.297-12.452 5.127-25.977-11.195-34.255-1.234-.625-.898-3.531-1.457-5.334-3.339-10.703-9.645-19.442-22.006-26.255-6.427 16.158-.787 32.083-4.609 48.927-7.986-18.871-15.726-35.593-30.348-48.108 1.284 9.037 3.384 17.911 3.622 26.824.378 14.173.399 28.445-1.098 42.537-1.298 12.237-5.526 24.033-17.308 34.498.535-3.132.661-4.49.997-5.808 6.124-23.778 5.215-47.608 1.108-71.531-2.87-16.715-14.801-25.886-33.503-32.548 25.783 38.35 13.608 74.974 1.059 111.582-.957-2.221-.768-4.421-.431-6.609 3.903-25.66 3.615-51.13-3.284-76.482-3.098-11.387-12.115-17.893-22.251-23.777-1.312-.763-3.523-.315-7.026-.535 11.493 9.24 14.958 19.838 15.354 31.032.79 22.391-1.833 44.536-9.101 66.099-1.236 3.655-3.345 7.08-5.049 10.61-1.476-7.043-.962-13.458-1.576-19.785-1.82-18.834-3.291-37.744-6.466-56.415-1.992-11.733-11.413-20.156-21.559-27.61 1.027 6.854 4.475 13.175 4.736 19.598.673 16.37.505 32.814-.476 49.174-.645 10.712-3.29 21.33-5.04 31.993l-2.6-.274c0-9.727 1.37-19.645-.332-29.132-2.388-13.358-6.834-26.456-11.011-39.511-.611-1.914-4.608-2.985-7.041-4.446-1.413 2.241-4.003 4.461-4.057 6.727-.543 23.698-.673 47.408-.963 71.116-.022 1.815-.398 3.626-.613 5.442l-1.771-.121c-3.771-19.314-7.539-38.633-11.308-57.95-7.646 8.054-8.351 16.736-7.842 26.063.75 13.552.195 27.156.195 40.741-.535.021-1.075.041-1.609.056-2.509-12.153-5.02-24.308-7.666-37.128-26.442 27.72-14.585 53.176 1.823 78.787-10.329-6.127-19.989-9.284-31.679-3.853 5.174 5.228 9.867 9.975 16.312 16.485-21.175-6.12-21.142-6.095-34.76 7.698-28.827 29.204-57.673 58.394-86.553 87.557-11.303 11.413-22.718 22.742-35.371 35.394-.422-2.834-.683-3.83-.706-4.835-1.272-54.996-.974-109.987 6.659-164.655 3.044-21.793 11.574-43.156 12.898-64.938 2.349-38.53 9.847-77.054 3.014-115.853-4.069-23.105 3.218-44.826 13.15-65.801 3.212-6.773.771-9.858-5.567-12.377-3.952-1.574-7.971-3.021-10.144-3.841 1.583-15.77 3.23-30.392 4.394-45.043.255-3.169-.327-6.871-2.024-9.599-7.138-11.449-14.556-22.786-22.523-33.792-2.329-3.208-6.848-5.18-10.36-7.713-1.441 3.982-3.924 7.917-4.157 11.954-1.114 19.772-.6 39.659-2.661 59.343-1.824 17.401-6.022 34.63-9.813 51.825-.785 3.568-4.393 6.652-6.7 9.959l-2.91-1.292c.783-13.328 1.724-26.652 2.332-39.986 1.259-27.589 2.706-55.178 3.255-82.779.148-7.417-2.67-14.88-4.679-25.139-11.575 6.589-20.184 11.484-28.446 16.191-3.643-9.559-3.887-20.919-15.186-29.775-3.432 4.515-7.913 7.969-8.845 12.054-4.638 20.395-8.805 40.895-12.217 61.477-2.238 13.506-2.917 27.213-4.288 40.831l-2.892.092c-5.289-41.923-10.583-83.845-15.97-126.509-1.548.33-4.727.137-5.994 1.417-7.216 7.284-17.761 12.762-18.314 23.944-1.146 23.308-2.471 46.621-3.023 69.945-.205 8.581 1.559 17.198 2.407 25.632-7.093-14.563-14.203-29.015-21.168-43.52-3.163-6.587-6.46-13.163-8.954-19.955-6.01-16.368-11.799-32.806-17.212-49.333-1.887-5.76-6.951-6.85-11.598-6.006-3.34.607-6.825 4.058-8.588 7.01-1.788 2.998-2.324 6.988-2.059 10.465 1.939 25.215 4.678 50.344 13.642 74.569 3.118 8.431 6.131 16.892 9.192 25.339-8.71-13.163-15.214-27.091-23.336-40.242-11.559-18.708-24.12-36.948-36.771-55.105-1.773-2.542-6.493-3.482-9.851-5.166-1.433 3.178-4.315 6.45-4.041 9.507.989 11.023 2.045 22.18 4.912 32.909 4.812 18.011 11.03 35.726 16.994 54.633-4.708-6.215-8.715-11.706-12.951-17.051-12.339-15.572-24.996-30.938-43.259-41.685-4.181-2.459-9.647-5.29-13.437-.546-2.665 3.339-4.73 8.655-3.705 12.365 2.256 8.157 6.643 15.855 10.08 23.564-7.378-2.303-14.487-5.662-21.984-6.608-12.49-1.577-23.365 2.819-30.172 12.212-5.68 7.84 2.559 13.214 6.673 19.126.39.561.362 1.345.477 1.797-4.353 0-8.45-.223-12.501.063-4.078.282-8.157.883-12.15 1.674-9.706 1.924-16.041 8.068-14.302 16.828 1.689 8.518 6.36 16.574 9.639 24.634.952-.066-.254.133-1.449.088-11.368-.45-19.504 4.566-24.073 13.039-4.439 8.226-.263 15.286 6.451 21.764 5.748 5.542 10.394 11.978 16.19 18.8-16.733.939-34.106-2.975-40.504 13.96-2.22 5.877-2.263 13.894.583 19.354 2.902 5.56 10.582 9.179 15.964 13.485-.499.182-2.004.584-3.35 1.243-17.026 8.321-18.27 25.074-2.562 34.701 6.381 3.909 12.855 7.704 20.223 12.108-14.83 1.697-22.885 8.74-25.217 20.43-3.248 16.306 11.657 20.104 24.498 25.329-25.945 13.987-23.094 31.268 1.654 43.412-.684 7.929-4.51 17.018-1.135 22.86 3.488 6.034 13.978 8.917 21.627 13.311-5.282 21.757-4.721 22.719 18.103 30.276.197.067.259.47.382.716-10.133 10.017-8.708 17.292 4.705 24.349 4.47 2.351 8.846 4.829 13.641 7.453-16.427 10.587-14.55 15.958 7.009 26.609-3.783 6.524-10.584 13.049-10.381 19.401.189 6.054 7.688 11.928 12.067 18.01-17.356 10.983-21.065 21.521 5.033 35.528-17.96 19.592-17.185 24.64 4.956 37.947-3.477 6.83-8.266 13.238-9.912 20.227-2.201 9.345 8.293 12.199 16.22 17.317-4.255.468-6.921.766-11.776 1.296 1.533 6.97 1.086 14.681 4.98 19.848 3.758 4.984 11.989 7.342 17.834 10.62-5.302 6.064-11.568 12.675-17.107 19.729-5.422 6.9-3.056 13.054 5.885 15.741 5.116 1.539 10.604 2.137 16.555 3.284-3.016 2.478-5.622 4.46-8.014 6.623-11.05 9.992-7.988 19.906 7.533 22.969 7.787 1.536 15.912 1.726 24.577 2.596-4.048 4.79-8.116 8.728-10.945 13.267-1.938 3.101-4.106 8.052-2.595 10.335 1.578 2.389 7.481 3.669 11.403 3.516 9.57-.359 19.086-1.823 29.676-2.959-4.344 5.954-8.701 11.017-11.853 16.614-1.654 2.936-2.972 8.278-1.253 9.894 2.39 2.249 7.951 3.143 11.824 2.629 8.434-1.115 16.657-3.482 27.048-5.804-3.668 3.656-6.596 5.593-8.005 8.179-3.071 5.62-7.394 11.574-7.384 17.381.006 5.291-1.705 7.767-5.621 10.967-22.224 18.156-44.963 35.906-65.914 55.162-14.562 13.378-12.568 17.693 6.125 25.515 1.068.447 2.015 1.129 3.369 1.898-1.34 1.644-3.041 2.844-3.336 4.266-.873 4.201-2.662 8.987-1.137 12.552.832 1.946 7.956 3.157 11.726 2.467 7.312-1.329 14.62-3.617 21.255-6.651 7.653-3.51 14.575-8.251 20.027-11.419 5.737 3.502 10.431 6.368 15.917 9.72.601 7.668-3.731 14.393-12.577 17.781-7.243 2.774-14.557 5.412-21.8 8.19-55.312 21.2-110.553 42.535-159.628 74.168-11.921 7.693-23.801 15.609-28.046 29.938z"/><g><path d="M676.325 966.266c-.474-6.988-9.654-37.29-14.623-37.4-30.571-.698-61.146-1.47-91.722-1.574-26.35-.088-52.704.51-79.038 1.251-4.403.124-9.807 1.531-12.867 4.095-4.739 1.268-3.353 16.514-3.282 21.952.148 12.121-.475 24.241-.592 36.365-.095 9.308-.571 18.666.526 27.873.388 3.249 4.397 8 7.709 8.731 6.491 1.447 8.609-3.64 8.807-8.496.792-19.768 3.295-68.159 1.929-70.498 17.551-.035 53.643-1.179 81.031-1.179-1.558 2.857-2.336 3.71-2.479 4.637-2.679 17.483-.798 34.884 1.94 52.189.291 1.843 5.038 4.49 7.557 4.355 3.006-.159 7.983-2.599 8.369-4.603 2.008-10.531 3.604-21.223 3.791-31.881.128-7.104-2.334-14.252-3.802-22.275 7.271-.676 13.983-1.579 20.716-1.822 3.914-.136 7.88 1.153 11.817 1.146 6.439-.017 12.261-2.429 19.397-1.969 5.507.353 5.15.049 13.523 3.265 2.807 7.469 1.349 20.843 1.532 29.767.305 14.515 1.452 29.045 3.175 43.484.314 2.632 4.672 5.76 7.947 6.87 1.489.506 5.551-2.981 7.224-5.332 1.472-2.071 1.673-5.082 1.692-7.673.145-17.101 1.241-34.281-.277-51.278z"/><path d="M670.331 803.512c-1.052-2.591-5.616-5.69-8.692-5.765-28.445-.684-56.91-.899-85.367-.971-21.365-.056-86.455-4.292-102.852 2.23-5.403 7.081-2.37 17.308-2.225 23.357.302 12.424 2.426 58.49 3.1 69.096.34 5.345 4.036 8.428 9.386 7.05 3.452-.888 8.173-4.842 8.339-7.615 1.031-17.191 1.068-34.442 1.139-51.675.026-5.345-2.83-11.346-.878-15.881 19.715.057 152.217-1.061 171.942-1.412 5.454-.806 7.765-14.354 6.108-18.414z"/><path d="M508.039 742.977c-11.511-2.995-18.078-10.142-22.695-19.148-4.384-8.548-2.233-15.747-1.784-24.761.709-14.224 13.162-23.342 27.751-25.887 16.016-2.792 32.889-2.039 49.397-2.281 11.725-.173 23.241 1.769 35.272.199 9.878-1.282 21.472-.733 30.404 2.761 11.405 4.458 20.487 12.725 20.86 25.678.079 4.485 5.412 33.685 2.985 37.685-6.242 10.294-15.833 15.878-29.859 14.354-6.41-.7-10.222 2.58-11.042 8.09-.76 5.087 2.099 10.3 7.407 10.061 12.39-.575 26.09 2.421 36.366-6.967 2.886-2.641 5.225-5.796 8.333-8.186 7.325-5.641 12.714-11.889 10.789-22.545.394-15.197-5.426-30.531-5.771-33.198 1.844-11.374-1.859-20.496-11.219-28.518-8.718-7.463-15.262-17.881-28.851-18.695-15.889-.945-31.888-.701-47.832-.592-12.33.085-24.652.718-36.977 1.181-22.534.843-47.104-4.123-62.621 16.898-.304.415-1.102.536-1.439.943-4.682 5.651-11.798 10.84-13.388 17.107-2.354 9.288-2.483 2.979-.317 25.514 2.119 16.782 2.381 8.571 3.873 24.223-1.395 8.123.931 1.863-.575 16.821 1.095 4.547 1.592 13.741 5.019 14.033 14.809 1.263 31.085 1.962 46.635 2.005 13.244.029 26.483-1.574 39.739-1.765 7.5-.101 12.237-3.22 12.386-9.045.319-12.481-.461-25.003-1.429-37.474-.425-5.48-4.887-5.82-9.919-3.949-8.048 3-5.561 9.231-5.524 14.456.088 12.841-4.162 16.684-18.388 15.954-6.208-.314-20.84-3.891-27.586-4.952"/><g><path d="M675.404 567.209c-4.103-1.673-8.848-5.964-12.299-5.964-13.679-3.07-12.045-.954-21.074-3.01-7.226-1.646-14.571-2.931-21.754-4.706-13.119-3.239-26.153-6.723-39.218-10.113-8.019-2.081-16.002-4.263-24.061-6.204-2.198-.528-4.712-.033-6.917-.551-21.012-4.973-41.912-10.336-63.051-14.828-3.112-.66-9.229 1.865-10.524 4.32-1.65 3.119-1.953 8.2 4.709 10.015 10.436 2.835 20.729 6.116 30.944 9.528 2.05.685 4.463 2.543 5.025 4.279 1.678 5.177 2.324 36.491 5.684 40.299-.9 3.769 1.911 8.219 3.275 13.173-3.765 1.47-8.271 3.376-12.909 4.992-11.225 3.919-22.826 7.15-33.558 11.906-2.866 1.273-3.16 7.042-4.635 10.746 3.024.853 6.237 2.764 9.047 2.387 18.043-2.448 36.083-5.039 53.957-8.297 14.619-2.662 28.957-6.507 43.518-9.455 6.531-1.319 13.511-1.071 19.909-2.688 10.69-2.702 21.03-6.474 31.616-9.527 11.743-3.389 24.033-5.645 35.19-10.12 4.234-1.701 8.257-8.178 8.321-12.524.097-6.134 4.954-7.883-1.195-13.658z"/><path fill-rule="evenodd" clip-rule="evenodd" fill="#fff" d="M575.823 574.476c1.116-6.392 44.483-7.826 39.582 5.59-2.854 7.778-33.355 10.017-38.012 7.267.25-1.423.25-11.783-1.57-12.857z"/></g><path d="M657.89 420.531c.231.85.061 17.513.185 22.756.43 18.478.662 36.966 1.746 55.417.135 2.327 4.517 5.636 7.521 6.247 1.995.404 5.816-2.787 7.387-5.115 1.573-2.33 1.819-5.583 1.864-8.441.266-16.646-2.695-63.435-2.858-80.772l-.078.261c.035-.251.06-.53.069-.869l.009.608c1.001-3.842-.034-6.353-.009-.645-.015.222-.1.999-.447 2.03l.038-.057-.178.442.14-.385c-1.495 1.621-6.413-8.263-10.326-8.431-25.514-1.09-51.036-2.3-76.571-2.601-24.92-.292-49.866.221-74.778.871-10.068.26-20.281 1.131-30.015 3.217-2.903.624-6.569 6.679-5.937 9.576l.5 6.236c-1.107 6.168-1.978 9.102-2.01 17.754-.048 11.837-.014 23.671-.014 35.508h.404c0 8.504-.533 17.05.309 25.49.269 2.689 3.688 5.839 6.616 7.341 1.586.815 6.043-.757 7.628-2.417 1.717-1.802 2.066-4.938 2.208-7.528 1.028-19.198 2.442-38.408 2.305-57.604-.029-4.41 1.529-9.427.689-14.817 6.802-2.063 8.284-3.571 16.959-3.665 13.771-.147 27.546-.026 41.311.212 6.805.117 13.594.744 21.377 1.201-1.709 3.24-3.363 4.887-3.292 6.474.68 15.976 1.311 31.967 2.898 47.881.232 2.3 5.523 5.926 8.333 5.831 2.859-.101 7.686-3.876 7.938-6.337 1.223-11.875 1.355-23.845 1.546-35.789.085-5.34-.604-10.691-.917-15.622 3.462-.78 6.44-1.642 9.493-2.095 4.895-.726 11.332-3.191 14.477-1.376 9.154 5.28 16.076-.287 23.868-1.717 5.832-.458 13.796 1.457 19.612.93"/><path fill-rule="evenodd" clip-rule="evenodd" d="M621.841 338.843c13.478-.688 25.419-1.146 37.315-2.073 1.664-.129 3.1-2.553 4.639-3.917-1.726-1.228-3.329-3.314-5.202-3.517-4.736-.513-9.606.017-14.393-.235-7.885-.413-15.744-1.115-21.565-1.544-.88-13-1.637-21.221-2.451-33.185 3.784 1.472 5.667-.115 7.503-.163 13.559-.358 27.129-.763 40.63-1.81 2.078-.163 3.816-3.7 5.713-5.676l-1.744-2.404c-16.672 2.235-33.748-3.949-50.263 3.056-1.254.531-3.584-.187-5.059-.895-6.691-3.223-7.947-.753-8.633 5.002-3.271 27.357-.379 54.612 1.357 81.877.205 3.203 3.482 6.261 5.338 9.384 1.727-3.484 4.612-6.881 4.97-10.472 1.137-11.393 1.327-22.856 1.845-33.428z"/><path d="M502.438 293.466c1.217.287 2.669.455 4.212.563 4.332.304 9.335.162 11.553 1.034 2.265.894 4.12 2.565 5.879 4.44 1.763 1.875 3.426 3.952 5.311 5.653 1.1.991 2.274 1.913 3.474 2.816 1.198.906 2.418 1.791 3.602 2.708.743-1.122 1.764-2.228 2.622-3.344.858-1.116 1.55-2.241 1.636-3.4.348-4.762-2.338-9.721-6.516-13.65-4.179-3.929-9.843-6.825-15.455-7.462-1.771.854-26.319-.01-30.734 1.384-.156.049-.284.109-.393.175-7.816 3.292-13.619 11.347-16.251 19.654-2.677 8.45-2.08 17.711 3.007 24.146 2.56 3.239 5.498 6.341 9.055 8.235 3.557 1.895 7.732 2.584 12.765.993 4.217-1.331 8.277-1.479 12.287-1.177 4.011.3 7.968 1.05 11.978 1.519 1.345.157 2.817.524 4.166 1.069 1.353.543 2.586 1.265 3.453 2.127 2.88 2.863 3.953 9.028 3.426 15.048-.526 6.02-2.653 11.896-6.17 14.18-2.527 1.639-5.395 2.872-8.222 3.937-2.826 1.066-5.368.763-7.739 1.733-2.365-.677-4.747-.141-6.784-.744-2.035-.604-3.971-1.146-5.937-1.585-3.654-.815-6.45-2.267-8.474-4.31-2.025-2.042-3.278-4.674-3.854-7.85-.164-.915-.109-1.93-.142-2.892-.03-.96-.148-1.868-.654-2.568-.699-.971-1.638-2.045-2.677-2.905-1.039-.858-2.179-1.502-3.275-1.611-.762-.076-1.888.627-2.884 1.59-.994.963-1.861 2.186-2.105 3.15-.412 1.642-.588 3.372-.583 5.112.003 1.739.185 3.488.487 5.17 1.316 7.272 7.005 12.847 13.89 15.521 6.885 2.675 13.862 3.238 20.636 3.173 9.403 1.149 12.04-.477 17.008-1.336 4.967-.86 9.404-3.863 13.382-9.137 4.29-5.689 6.311-11.837 6.739-18.056.428-6.221-.741-12.511-2.831-18.488-1.751-5.004-7.094-9.156-13.378-11.118-6.286-1.96-13.51-1.729-19.024 2.032-2.745-.547-5.26-.99-7.635-1.448-2.378-.456-4.619-.926-6.816-1.525-1.287-.35-2.863-.794-4.206-1.365-1.342-.568-2.445-1.261-2.783-2.108-.984-2.462-1.97-5.044-2.653-7.642-.686-2.6-1.071-5.214-.854-7.743.247-2.86 1.19-5.616 3.044-7.838 1.855-2.221 4.624-3.908 8.517-4.628.79-.146 1.694-.228 2.615-.312 0 .035.265-.006.535-.051l.553-.058.012.003c1.106.778 1.986.116 2.541-.406l.49-.102c.158-.047.198-.157.154-.306"/></g></svg>